<svg xmlns="http://www.w3.org/2000/svg" data-name="Layer 1" viewBox="0 0 64 64"><path fill="#414042" d="M33,18H22a2,2,0,0,1,0-4H33a2,2,0,0,1,0,4ZM58,5H6a6.0066,6.0066,0,0,0-6,6V33a2,2,0,0,0,4,0V11A2.0027,2.0027,0,0,1,6,9H58a2.0027,2.0027,0,0,1,2,2V35H31a2,2,0,0,0,0,4H60v4a2.0027,2.0027,0,0,1-2,2H31a2,2,0,0,0,0,4H58a6.0066,6.0066,0,0,0,6-6V11A6.0066,6.0066,0,0,0,58,5ZM17,16a2,2,0,0,0-2-2H10a2,2,0,0,0,0,4h5A2,2,0,0,0,17,16Zm18,6a2,2,0,0,0-2-2H29a2,2,0,0,0,0,4h4A2,2,0,0,0,35,22ZM24,22a2,2,0,0,0-2-2H19a2,2,0,0,0,0,4h3A2,2,0,0,0,24,22Z"/><path fill="#00d65b" d="M50,19a2.0059,2.0059,0,0,0,2,2h5v1a3.9989,3.9989,0,0,1-4,4H43a3.9989,3.9989,0,0,1-4-4V21h5a2,2,0,0,0,0-4H39V16a3.9989,3.9989,0,0,1,4-4H53a3.9989,3.9989,0,0,1,4,4v1H52A2.0059,2.0059,0,0,0,50,19ZM0,41a2.0009,2.0009,0,0,1,1.0425-1.7559l11-6a1.9966,1.9966,0,0,1,1.915,0l11,6A2.0009,2.0009,0,0,1,26,41c0,10.0811-6.3887,15.292-11.9546,18.7051a2,2,0,0,1-2.0908,0C6.3887,56.292,0,51.0811,0,41ZM12,51a1.993,1.993,0,0,0,1.4141-.5859l5-5a2,2,0,0,0-2.8282-2.8282L12,46.1719l-1.5859-1.586a2,2,0,0,0-2.8282,2.8282l3,3A1.993,1.993,0,0,0,12,51Z"/></svg>